<svg width="254" height="294" viewBox="0 0 254 294" fill="none" xmlns="http://www.w3.org/2000/svg">
<path fill-rule="evenodd" clip-rule="evenodd" d="M0 127.273V125.172C0 56.0418 56.3866 0 125.943 0H128.057C197.613 0 254 56.0418 254 125.172V127.274C254 196.405 197.613 252.447 128.057 252.447H125.943C56.3866 252.448 0 196.405 0 127.274" fill="#E4EBF7"/>
<path fill-rule="evenodd" clip-rule="evenodd" d="M40.1068 130.79C40.0052 131.881 39.6873 132.941 39.1714 133.909C38.6556 134.877 37.952 135.734 37.1013 136.431C36.2506 137.127 35.2695 137.649 34.2148 137.967C33.16 138.285 32.0524 138.392 30.9558 138.282C29.8592 138.172 28.7953 137.847 27.8256 137.327C26.8558 136.806 25.9994 136.1 25.3056 135.249C24.6118 134.398 24.0945 133.418 23.7834 132.368C23.4723 131.317 23.3736 130.215 23.4931 129.126C23.7318 126.95 24.8261 124.955 26.5375 123.577C28.249 122.199 30.439 121.549 32.6305 121.769C34.822 121.989 36.8374 123.06 38.2378 124.75C39.6381 126.439 40.3099 128.611 40.1068 130.79Z" fill="white"/>
<path d="M48.8012 146.5L36.0413 157.317M37.3023 134.257L47.8771 140.216L37.3023 134.257Z" stroke="white" stroke-width="2"/>
<path fill-rule="evenodd" clip-rule="evenodd" d="M40.2279 159.379C40.0759 160.878 39.3308 162.256 38.1566 163.21C36.9823 164.163 35.4751 164.614 33.9664 164.463C32.4578 164.312 31.0713 163.571 30.112 162.404C29.1527 161.237 28.6991 159.739 28.8511 158.24C28.9263 157.497 29.148 156.777 29.5034 156.12C29.8588 155.462 30.3409 154.881 30.9224 154.409C31.5038 153.937 32.1731 153.583 32.892 153.368C33.611 153.153 34.3655 153.081 35.1125 153.156C35.8595 153.231 36.5844 153.451 37.2457 153.804C37.9071 154.157 38.492 154.636 38.967 155.214C39.442 155.792 39.7978 156.457 40.0141 157.172C40.2305 157.887 40.3031 158.636 40.2279 159.379ZM58.0976 143.231C58.0279 143.983 57.8089 144.715 57.4533 145.383C57.0977 146.051 56.6125 146.642 56.0256 147.123C55.4388 147.604 54.762 147.964 54.0343 148.183C53.3066 148.403 52.5423 148.476 51.7857 148.401C51.0291 148.325 50.2951 148.101 49.6261 147.742C48.9571 147.382 48.3663 146.895 47.8878 146.308C47.4093 145.72 47.0526 145.044 46.8382 144.319C46.6239 143.594 46.5562 142.834 46.6391 142.083C46.8046 140.582 47.5596 139.208 48.7398 138.258C49.9201 137.308 51.43 136.86 52.9409 137.012C54.4518 137.163 55.8414 137.902 56.8072 139.066C57.773 140.231 58.2368 141.728 58.0976 143.231ZM99.8942 26.5469L129.978 26.5329C130.586 26.5327 131.188 26.4135 131.749 26.1822C132.311 25.9508 132.821 25.6119 133.25 25.1846C133.68 24.7573 134.021 24.2501 134.253 23.692C134.485 23.1338 134.605 22.5357 134.605 21.9316C134.604 21.3275 134.485 20.7294 134.252 20.1715C134.019 19.6135 133.678 19.1065 133.248 18.6795C132.818 18.2525 132.308 17.9139 131.746 17.6829C131.185 17.4519 130.583 17.3331 129.975 17.3333L99.8912 17.3463C99.2834 17.3465 98.6815 17.4657 98.12 17.6971C97.5585 17.9285 97.0484 18.2675 96.6187 18.6948C96.1891 19.1221 95.8483 19.6294 95.6159 20.1876C95.3834 20.7458 95.2639 21.344 95.2641 21.9481C95.2643 22.5523 95.3842 23.1504 95.617 23.7085C95.8498 24.2665 96.1909 24.7736 96.6209 25.2006C97.0508 25.6276 97.5612 25.9663 98.1228 26.1973C98.6845 26.4283 99.2864 26.5471 99.8942 26.5469ZM111.401 44.9321L141.485 44.919C142.701 44.9007 143.86 44.4077 144.713 43.5466C145.566 42.6856 146.044 41.5256 146.043 40.3173C146.043 39.1089 145.564 37.9493 144.71 37.089C143.857 36.2287 142.697 35.7367 141.481 35.7194L111.397 35.7325C110.789 35.7327 110.188 35.852 109.626 36.0834C109.065 36.3148 108.555 36.6538 108.125 37.0811C107.696 37.5085 107.355 38.0157 107.123 38.5739C106.89 39.132 106.771 39.7302 106.771 40.3343C106.771 40.9383 106.891 41.5364 107.124 42.0944C107.357 42.6524 107.698 43.1593 108.128 43.5862C108.558 44.0132 109.068 44.3518 109.63 44.5827C110.192 44.8136 110.793 44.9323 111.401 44.9321Z" fill="white"/>
<path fill-rule="evenodd" clip-rule="evenodd" d="M113.796 26.5329V26.5309L129.72 26.5249C129.106 26.5161 128.497 26.6286 127.928 26.8559C127.358 27.0832 126.84 27.4208 126.403 27.8489C125.966 28.2771 125.619 28.7873 125.383 29.35C125.146 29.9126 125.024 30.5164 125.024 31.1262C125.025 31.736 125.147 32.3397 125.384 32.9022C125.621 33.4647 125.968 33.9747 126.405 34.4026C126.843 34.8304 127.361 35.1677 127.931 35.3946C128.5 35.6215 129.109 35.7337 129.723 35.7245L113.8 35.7315V35.7295C115.027 35.7289 116.204 35.244 117.071 34.3812C117.938 33.5185 118.425 32.3487 118.425 31.1292C118.424 29.9096 117.936 28.7403 117.068 27.8783C116.2 27.0163 115.023 26.5324 113.796 26.5329ZM186.156 135.631C185.598 141.131 180.661 145.14 175.128 144.585C169.595 144.031 165.561 139.123 166.119 133.624C166.676 128.124 171.614 124.116 177.148 124.67C182.681 125.225 186.715 130.132 186.157 135.631" fill="white"/>
<path d="M194.714 156.496L179.324 169.542M180.846 141.73L193.598 148.916L180.846 141.73Z" stroke="white" stroke-width="2"/>
<path fill-rule="evenodd" clip-rule="evenodd" d="M186.302 170.113C186.221 171.016 185.961 171.894 185.536 172.697C185.111 173.499 184.531 174.21 183.827 174.788C183.124 175.366 182.312 175.799 181.439 176.063C180.566 176.327 179.649 176.416 178.742 176.325C177.834 176.234 176.953 175.964 176.151 175.533C175.348 175.101 174.64 174.515 174.067 173.809C173.494 173.104 173.068 172.292 172.813 171.421C172.558 170.55 172.479 169.638 172.582 168.737C172.785 166.945 173.692 165.305 175.104 164.172C176.516 163.04 178.32 162.506 180.126 162.687C181.931 162.868 183.592 163.749 184.748 165.139C185.904 166.529 186.463 168.316 186.302 170.113ZM205.139 153.336C205.055 154.243 204.79 155.125 204.361 155.931C203.932 156.736 203.347 157.449 202.639 158.028C201.931 158.608 201.115 159.042 200.237 159.306C199.36 159.571 198.438 159.66 197.526 159.568C196.614 159.477 195.728 159.207 194.922 158.774C194.115 158.34 193.402 157.753 192.825 157.044C192.248 156.336 191.818 155.521 191.559 154.647C191.301 153.773 191.219 152.856 191.318 151.95C191.517 150.14 192.428 148.481 193.852 147.335C195.275 146.189 197.097 145.648 198.92 145.831C200.743 146.014 202.42 146.905 203.584 148.311C204.749 149.716 205.308 151.522 205.139 153.336Z" fill="white"/>
<path fill-rule="evenodd" clip-rule="evenodd" d="M153.276 192.439C153.276 193.03 153.039 193.597 152.619 194.015C152.199 194.432 151.628 194.667 151.034 194.667C150.439 194.667 149.869 194.432 149.449 194.015C149.028 193.597 148.792 193.03 148.792 192.439C148.792 191.848 149.028 191.282 149.449 190.864C149.869 190.446 150.439 190.211 151.034 190.211C151.628 190.211 152.199 190.446 152.619 190.864C153.039 191.282 153.276 191.848 153.276 192.439V192.439ZM227.263 115.967C227.263 116.558 227.027 117.125 226.607 117.543C226.186 117.961 225.616 118.195 225.021 118.195C224.427 118.195 223.856 117.961 223.436 117.543C223.015 117.125 222.779 116.558 222.779 115.967C222.779 115.376 223.015 114.809 223.436 114.391C223.856 113.974 224.426 113.739 225.021 113.739C225.615 113.739 226.186 113.974 226.606 114.391C227.026 114.809 227.262 115.376 227.262 115.967H227.263ZM218.295 151.085C218.295 151.377 218.237 151.667 218.124 151.938C218.011 152.208 217.846 152.454 217.638 152.661C217.429 152.868 217.182 153.032 216.91 153.144C216.638 153.256 216.346 153.313 216.052 153.313C215.757 153.313 215.466 153.255 215.193 153.143C214.921 153.031 214.674 152.867 214.466 152.66C214.258 152.453 214.093 152.207 213.98 151.937C213.867 151.666 213.809 151.376 213.809 151.084C213.809 150.493 214.046 149.926 214.466 149.508C214.887 149.09 215.457 148.855 216.052 148.855C216.647 148.855 217.217 149.09 217.638 149.508C218.059 149.926 218.295 150.493 218.295 151.084V151.085ZM178.483 107.524C178.489 107.821 178.436 108.116 178.326 108.392C178.216 108.668 178.052 108.919 177.843 109.131C177.634 109.343 177.385 109.511 177.11 109.626C176.834 109.741 176.539 109.801 176.24 109.801C175.942 109.801 175.646 109.741 175.371 109.626C175.096 109.511 174.847 109.343 174.638 109.131C174.429 108.919 174.265 108.668 174.155 108.392C174.045 108.116 173.992 107.821 173.998 107.524C174.011 106.941 174.252 106.387 174.672 105.979C175.091 105.571 175.654 105.343 176.24 105.343C176.827 105.343 177.39 105.571 177.809 105.979C178.228 106.387 178.47 106.941 178.483 107.524ZM197.019 92.0119C197.026 92.3085 196.972 92.6034 196.862 92.8792C196.753 93.1551 196.588 93.4064 196.38 93.6184C196.171 93.8304 195.921 93.9989 195.646 94.1139C195.371 94.2289 195.076 94.2881 194.777 94.2881C194.479 94.2881 194.183 94.2289 193.908 94.1139C193.633 93.9989 193.383 93.8304 193.175 93.6184C192.966 93.4064 192.802 93.1551 192.692 92.8792C192.582 92.6034 192.529 92.3085 192.535 92.0119C192.547 91.429 192.789 90.8742 193.208 90.4664C193.627 90.0586 194.19 89.8302 194.777 89.8302C195.364 89.8302 195.927 90.0586 196.346 90.4664C196.765 90.8742 197.007 91.429 197.019 92.0119V92.0119ZM203.846 180.795C203.846 181.386 203.61 181.953 203.189 182.371C202.769 182.789 202.198 183.024 201.603 183.024C201.009 183.024 200.438 182.789 200.018 182.371C199.597 181.953 199.361 181.386 199.361 180.795C199.361 180.204 199.597 179.637 200.018 179.219C200.438 178.801 201.009 178.566 201.603 178.566C202.198 178.566 202.769 178.801 203.189 179.219C203.61 179.637 203.846 180.204 203.846 180.795V180.795Z" stroke="white" stroke-width="2"/>
<path d="M222.778 117.164L209.824 125.086L194.379 117.163V94.2428M216.301 153.313L214.372 173.551L203.348 179.557L216.301 153.313ZM175.198 174.86L168.786 184.701H157.325L152.777 191.202L175.198 174.86ZM176.489 125.103V109.257V125.103Z" stroke="white" stroke-width="2"/>
<path fill-rule="evenodd" clip-rule="evenodd" d="M168.062 65.7126H164.076C162.808 65.7092 161.594 65.2071 160.697 64.3162C159.8 63.4253 159.295 62.2179 159.291 60.9579C159.295 59.6977 159.8 58.49 160.697 57.5989C161.593 56.7078 162.808 56.2056 164.076 56.2022H168.062C169.33 56.2056 170.545 56.7078 171.442 57.5989C172.338 58.49 172.844 59.6977 172.847 60.9579C172.843 62.2179 172.338 63.4253 171.441 64.3162C170.545 65.2071 169.33 65.7092 168.062 65.7126Z" fill="white"/>
<path fill-rule="evenodd" clip-rule="evenodd" d="M176.37 29.71C176.37 13.3854 189.685 0.151001 206.111 0.151001C222.535 0.151001 235.852 13.3854 235.852 29.71C235.852 46.0336 222.535 59.269 206.111 59.269C189.685 59.269 176.37 46.0336 176.37 29.71Z" fill="#1890FF"/>
<path fill-rule="evenodd" clip-rule="evenodd" d="M207.775 38.0898C208.279 38.5911 208.567 39.2348 208.567 40.0229C208.567 40.811 208.278 41.4918 207.775 41.9922C207.198 42.4935 206.55 42.7442 205.757 42.7442C204.965 42.7442 204.315 42.4584 203.811 41.9571C203.234 41.4557 202.984 40.811 202.984 40.0229C202.984 39.2348 203.234 38.5911 203.811 38.0898C204.315 37.5884 204.965 37.3377 205.758 37.3377C206.55 37.3377 207.233 37.5884 207.775 38.0898ZM212.098 18.5746C213.538 19.827 214.26 21.5455 214.26 23.7304C214.26 25.447 213.829 26.8688 213.03 27.9918C212.962 28.088 212.892 28.1723 212.81 28.2575C212.39 28.6876 211.387 29.6071 209.828 30.9637C209.221 31.4335 208.728 32.0333 208.387 32.7184C208.023 33.4531 207.837 34.2627 207.846 35.0817V35.5831H203.703V35.0817C203.703 33.7211 203.92 32.5389 204.423 31.5723C204.891 30.6058 206.297 29.1017 208.638 27.0242L209.072 26.5228C209.721 25.7357 210.045 24.8754 210.045 23.9811C210.045 22.7979 209.683 21.8674 209.036 21.1886C208.352 20.5068 207.378 20.1849 206.152 20.1849C204.603 20.1849 203.487 20.6502 202.766 21.6187C202.392 22.1201 202.139 22.7568 201.999 23.5278C201.912 23.9883 201.665 24.4039 201.302 24.7025C200.939 25.001 200.482 25.1637 200.011 25.1622H200.007C198.718 25.1622 197.73 23.976 198.009 22.7257C198.349 21.2036 199.038 19.9383 200.1 18.9316C201.65 17.4275 203.739 16.6755 206.406 16.6755C208.746 16.6755 210.657 17.2842 212.098 18.5746Z" fill="white"/>
<path fill-rule="evenodd" clip-rule="evenodd" d="M52.5005 75.9349C52.5005 75.9349 74.5035 81.3093 80.0492 91.9226C85.6735 102.691 73.641 101.207 64.18 96.8709C53.2239 91.8494 39.2614 85.0172 52.5005 75.9349Z" fill="#FFB594"/>
<path fill-rule="evenodd" clip-rule="evenodd" d="M91.2837 67.2848L90.8307 70.1855C90.0711 70.6769 86.0407 67.5154 86.0407 67.5154L84.3812 68.2654L83.0233 62.5662C83.0233 62.5662 89.8986 57.9649 92.0192 57.5347C94.4929 57.0324 101.991 58.4773 102.814 59.8188C102.814 59.8188 104.146 60.3061 100.567 60.5107C96.9877 60.7142 95.4795 60.9589 93.7171 63.6511C91.9546 66.3443 91.2837 67.2848 91.2837 67.2848Z" fill="#FFC6A0"/>
<path fill-rule="evenodd" clip-rule="evenodd" d="M129.188 111.265C126.538 103.521 122.984 98.05 120.192 95.7459C116.661 92.8321 110.77 93.5149 108.726 91.5476C107.444 90.3133 105.482 90.3474 105.482 90.3474C105.482 90.3474 90.3697 87.181 88.5053 86.8591C86.1144 86.448 86.3625 86.1432 82.3978 85.4503C80.8139 83.5382 79.4549 84.3253 79.4549 84.3253L72.282 82.9386C71.4215 81.4627 69.8376 81.9129 69.8376 81.9129L67.3477 81.0135C65.6882 91.0162 59.5392 94.8465 59.5392 94.8465C61.3501 95.9715 75.3812 103.169 75.3812 103.169L80.5334 140.378C80.5334 140.378 77.183 146.087 81.8913 149.512C81.8913 149.512 101.95 145.759 117.121 149.182C117.121 149.182 120.195 146.629 118.102 140.352C118.63 137.334 119.508 132.067 119.853 128.699C120.242 129.473 121.89 130.622 123.021 132.185C123.021 132.185 132.511 124.8 134.171 118.136C133.332 117.411 132.559 116.546 131.884 115.676C131.312 114.938 131.523 113.615 131.112 112.952C130.437 111.865 129.292 111.57 129.188 111.265Z" fill="white"/>
<path fill-rule="evenodd" clip-rule="evenodd" d="M101.985 290.375C101.985 290.375 106.318 292.421 109.404 291.399C112.25 290.456 113.974 292.068 116.546 292.58C119.119 293.091 123.481 293.683 128.336 291.316C128.232 285.792 121.386 287.326 116.27 284.585C113.684 283.202 112.452 279.851 112.64 275.763H103.155C103.155 275.763 101.751 286.311 101.985 290.375Z" fill="#CBD1D1"/>
<path fill-rule="evenodd" clip-rule="evenodd" d="M101.961 290.202C101.961 290.202 104.411 291.477 108.78 290.857C111.865 290.419 112.525 291.34 116.269 291.891C120.014 292.442 127.088 291.822 128.196 290.995C128.613 292.098 127.85 293.063 127.85 293.063C127.85 293.063 126.325 293.668 122.996 293.889C120.948 294.026 117.145 294.181 115.322 293.385C113.519 292.006 110.028 291.477 109.543 293.143C105.59 294.096 102.123 292.857 102.123 292.857L101.961 290.202Z" fill="#2B0849"/>
<path fill-rule="evenodd" clip-rule="evenodd" d="M109.3 276.384H112.421C112.421 276.384 112.317 283.104 116.997 284.964C112.316 285.584 108.364 282.655 109.3 276.384Z" fill="#A4AABA"/>
<path fill-rule="evenodd" clip-rule="evenodd" d="M58.0512 272.731C58.0512 272.731 55.9255 280.167 53.5265 285.07C51.7126 288.775 49.2641 292.582 59.0399 292.582C65.7467 292.582 68.0721 292.101 66.5286 285.965C64.985 279.829 66.7969 272.731 66.7969 272.731H58.0512Z" fill="#CBD1D1"/>
<path fill-rule="evenodd" clip-rule="evenodd" d="M51.9316 290.169C51.9316 290.169 54.0471 291.342 58.6232 291.342C64.7601 291.342 66.9452 289.687 66.9452 289.687C66.9452 289.687 67.5526 290.804 66.3208 291.858C65.319 292.715 62.6919 293.453 58.8654 293.408C54.6837 293.36 52.9818 292.841 52.0698 292.237C51.2375 291.685 51.3767 290.653 51.9316 290.169Z" fill="#2B0849"/>
<path fill-rule="evenodd" clip-rule="evenodd" d="M58.9358 274.639C58.9358 274.639 58.9691 276.162 58.6191 277.577C58.267 279.001 57.5315 280.689 57.4791 281.727C57.4206 282.881 62.0562 283.311 62.6797 281.761C63.3052 280.21 63.9851 275.317 64.6096 274.489C65.2341 273.662 59.6632 272.365 58.9358 274.64" fill="#A4AABA"/>
<path fill-rule="evenodd" clip-rule="evenodd" d="M100.542 278.86L114.038 278.952C114.038 278.952 115.348 224.286 115.908 214.377C116.467 204.468 119.717 170.897 116.919 151.08L104.261 150.434L81.2093 151.216C81.2093 151.216 80.7715 155.193 80.0038 161.219C79.9402 161.716 79.3157 162.064 79.2481 162.587C79.1725 163.174 79.6749 163.945 79.571 164.559C77.1861 178.676 73.1375 197.751 70.7496 211.361C70.6326 212.029 69.5047 212.372 69.2787 214.059C69.2383 214.362 69.4916 215.588 69.3917 215.859C62.4579 234.653 58.3458 263.829 54.9883 277.91L69.7246 277.896C69.7246 277.896 71.941 269.303 73.7903 260.88C76.6261 247.96 97.1058 175.642 97.1058 175.642L100.148 175.12L101.201 221.594C101.201 221.594 100.975 222.831 101.541 223.62C102.106 224.407 100.976 224.746 101.145 225.87L101.541 227.668C101.541 227.668 101.088 234.866 100.635 239.59C100.183 244.313 100.542 278.86 100.542 278.86Z" fill="#7BB2F9"/>
<path d="M107.301 225.345C107.301 225.345 110.1 224.232 113.458 221.452M76.7583 221.82C77.9215 221.914 80.832 219.795 83.7748 216.872L76.7583 221.82Z" stroke="#648BD8" stroke-width="1.051" stroke-linecap="round" stroke-linejoin="round"/>
<path d="M108.224 222.295C108.224 222.295 111.022 221.182 114.38 218.401" stroke="#648BD8" stroke-linecap="round" stroke-linejoin="round"/>
<path d="M56.6166 274.753H70.0444M75.4014 224.969C75.4014 224.969 78.0466 224.377 81.964 221.595L75.4014 224.969ZM86.7913 151.64C86.5189 154.755 87.094 160.188 82.417 160.788L86.7913 151.64ZM104.542 149.882C104.542 149.882 104.653 163.931 103.238 164.987C100.999 166.655 100.221 166.936 100.221 166.936L104.542 149.882ZM100.673 150.441C100.673 150.441 100.708 163.356 99.4665 174.883L100.673 150.441ZM94.502 175.982C94.502 175.982 101.778 174.314 104.016 174.314L94.502 175.982ZM74.9676 206.012C74.6553 207.54 74.326 209.064 73.9799 210.585C73.9799 210.585 72.509 212.422 72.962 214.371C73.415 216.32 72.0066 216.421 67.9329 229.767C66.2219 235.372 63.4032 248.408 61.5287 257.438L61.2957 258.561L74.9676 206.012ZM76.3588 197.937C76.0743 199.528 75.7776 201.117 75.469 202.704L76.3588 197.937ZM83.3219 152.241L82.1153 162.736C82.1153 162.736 81.0086 162.886 81.6109 164.986C81.7249 166.335 78.9132 180.803 76.385 195.497L83.3219 152.241Z" stroke="#648BD8" stroke-width="1.051" stroke-linecap="round" stroke-linejoin="round"/>
<path fill-rule="evenodd" clip-rule="evenodd" d="M117.27 148.217C117.27 148.217 100.072 145.105 81.059 148.418C81.2184 150.938 81.056 152.579 81.056 152.579C81.056 152.579 95.8729 149.753 117.042 152.266C117.296 149.905 117.27 148.217 117.27 148.217Z" fill="#192064"/>
<path fill-rule="evenodd" clip-rule="evenodd" d="M107.263 151.17L107.266 146.246C107.267 146.035 107.186 145.832 107.04 145.679C106.893 145.527 106.693 145.437 106.481 145.429C104.019 145.337 101.37 145.32 98.5757 145.415C98.3625 145.422 98.1604 145.511 98.012 145.664C97.8636 145.816 97.7804 146.02 97.7797 146.232L97.7767 151.151C97.7762 151.26 97.7978 151.367 97.84 151.468C97.8822 151.568 97.9442 151.659 98.0224 151.735C98.1006 151.811 98.1933 151.87 98.2951 151.91C98.3969 151.95 98.5057 151.969 98.615 151.966C101.021 151.906 103.632 151.902 106.413 151.983C106.523 151.987 106.633 151.968 106.735 151.929C106.838 151.89 106.932 151.831 107.011 151.755C107.09 151.68 107.153 151.589 107.196 151.489C107.24 151.388 107.262 151.28 107.263 151.171" fill="white"/>
<path fill-rule="evenodd" clip-rule="evenodd" d="M106.138 150.235L106.14 147.151C106.141 146.984 106.077 146.822 105.96 146.701C105.844 146.581 105.684 146.51 105.516 146.504C103.544 146.439 101.57 146.436 99.5977 146.493C99.4279 146.499 99.2667 146.569 99.1481 146.69C99.0295 146.811 98.9629 146.973 98.9622 147.142V150.222C98.9616 150.308 98.9784 150.393 99.0115 150.473C99.0445 150.552 99.0933 150.624 99.1548 150.684C99.2163 150.744 99.2894 150.791 99.3696 150.823C99.4498 150.855 99.5356 150.87 99.622 150.868C101.57 150.826 103.519 150.829 105.467 150.879C105.832 150.889 106.138 150.598 106.138 150.235Z" fill="#192064"/>
<path d="M101.88 175.034L102.785 219.795C102.785 219.795 103.464 221.37 102.558 222.495C101.654 223.62 105.048 223.169 103.464 224.744C101.881 226.318 104.369 225.869 103.464 228.118C102.863 229.611 102.462 249.274 102.359 263.358M101.15 275.753H113.597H101.15ZM102.334 270.855C102.34 274.251 102.376 276.66 102.446 277.378L102.334 270.855ZM102.349 264.857C102.34 266.306 102.335 267.756 102.334 269.205L102.349 264.857Z" stroke="#648BD8" stroke-width="1.051" stroke-linecap="round" stroke-linejoin="round"/>
<path fill-rule="evenodd" clip-rule="evenodd" d="M47.2908 83.2505C47.2908 83.2505 46.7703 89.3117 54.5778 88.8173C65.8769 88.1034 63.8773 79.4473 86.3969 67.1043C85.6039 64.3891 83.9282 62.3476 83.9282 62.3476C83.9282 62.3476 72.7623 65.4659 61.1444 70.4152C54.3185 73.3229 47.6308 76.7842 47.2908 83.2505ZM105.384 90.9009L106.334 85.5145L97.3711 74.0539L92.2896 79.4403L90.5342 87.2953C90.5205 87.3535 90.5235 87.4144 90.5427 87.4711C90.562 87.5278 90.5967 87.578 90.6431 87.6161C91.6166 88.4183 97.2006 92.6426 105.117 91.1696C105.184 91.1569 105.245 91.1244 105.292 91.0764C105.34 91.0284 105.372 90.9672 105.383 90.9009" fill="#FFC6A0"/>
<path fill-rule="evenodd" clip-rule="evenodd" d="M94.7733 79.1996C94.7733 79.1996 90.2002 76.339 92.3198 72.3263C93.9572 69.228 96.8728 73.4623 96.8728 73.4623C96.8728 73.4623 97.3974 69.8105 100.021 69.8105C100.546 68.7678 101.596 65.6374 101.596 65.6374C101.596 65.6374 113.142 68.2454 115.242 68.7668C115.242 73.9837 112.917 88.2428 107.333 88.681C98.3618 89.3859 94.7733 79.1996 94.7733 79.1996Z" fill="#FFC6A0"/>
<path fill-rule="evenodd" clip-rule="evenodd" d="M114.882 73.2427C117.506 71.1561 118.382 63.4947 118.382 63.4947C118.382 63.4947 115.881 63.0034 111.684 61.4392C106.959 59.3526 98.7724 56.6795 94.0489 62.4178C84.2954 65.6494 91.9808 82.2939 91.9808 82.2939L94.7178 79.2648C94.7178 79.2648 90.748 75.969 92.6194 73.0051C94.8086 69.5338 96.5741 74.081 96.5741 74.081C96.5741 74.081 97.2167 71.6876 100.187 70.73C100.545 70.0181 101.232 68.0488 101.631 66.8697C101.717 66.6153 101.895 66.402 102.131 66.2714C102.367 66.1408 102.643 66.1024 102.906 66.1638C105.327 66.7233 111.659 68.1882 114.362 68.8329C114.889 68.9583 115.241 69.4496 115.189 69.986L114.882 73.2427Z" fill="#520038"/>
<path fill-rule="evenodd" clip-rule="evenodd" d="M105.906 75.8677C105.802 76.4794 105.319 76.9085 104.826 76.8263C104.333 76.7431 104.018 76.1806 104.122 75.5689C104.226 74.9573 104.709 74.5282 105.202 74.6104C105.694 74.6926 106.009 75.2561 105.906 75.8677ZM113.124 77.5021C113.02 78.1137 112.537 78.5429 112.045 78.4607C111.552 78.3774 111.238 77.8149 111.341 77.2033C111.445 76.5917 111.928 76.1625 112.42 76.2447C112.912 76.327 113.227 76.8895 113.124 77.5021Z" fill="#552950"/>
<path d="M111.105 74.6404L110.201 76.2548L109.9 80.6234H107.652" stroke="#DB836E" stroke-width="1.118" stroke-linecap="round" stroke-linejoin="round"/>
<path d="M111.827 74.2805C111.827 74.2805 113.633 73.5626 114.355 74.8189" stroke="#5C2552" stroke-width="1.118" stroke-linecap="round" stroke-linejoin="round"/>
<path d="M93.2036 74.0809C93.2036 74.0809 93.6848 72.964 94.3264 73.363C94.969 73.7621 95.6117 74.7999 94.8893 75.3584C94.166 75.9158 95.0497 77.0328 95.0497 77.0328" stroke="#DB836E" stroke-width="1.118" stroke-linecap="round" stroke-linejoin="round"/>
<path d="M104.201 72.7253C104.201 72.7253 106.047 73.8413 108.375 73.6819" stroke="#5C2552" stroke-width="1.118" stroke-linecap="round" stroke-linejoin="round"/>
<path d="M95.5309 81.0225C95.5309 81.0225 97.8594 88.4423 106.047 88.682M104.603 81.581C104.603 81.581 106.849 82.7772 109.017 82.7772L104.603 81.581ZM105.566 84.1338C105.566 84.1338 106.528 84.5329 107.09 84.4527L105.566 84.1338Z" stroke="#DB836E" stroke-width="1.118" stroke-linecap="round" stroke-linejoin="round"/>
<path d="M69.6106 82.4754C69.6106 82.4754 68.8782 91.7823 61.334 96.7195M82.1708 89.2234C82.1708 89.2234 82.6247 94.8856 77.1921 102.045L82.1708 89.2234Z" stroke="#E4EBF7" stroke-width="1.101" stroke-linecap="round" stroke-linejoin="round"/>
<path d="M130.55 122.794C130.55 122.794 125.231 130.217 121.045 133.591" stroke="#E4EBF7" stroke-width="1.051" stroke-linecap="round" stroke-linejoin="round"/>
<path d="M120.362 107.217C120.362 107.217 120.818 111.594 118.216 139.364" stroke="#E4EBF7" stroke-width="1.101" stroke-linecap="round" stroke-linejoin="round"/>
<path fill-rule="evenodd" clip-rule="evenodd" d="M151.356 151.237H101.078C100.807 151.237 100.548 151.13 100.357 150.94C100.166 150.751 100.059 150.493 100.059 150.224V118.452C100.059 117.893 100.515 117.439 101.078 117.439H151.356C151.919 117.439 152.375 117.893 152.375 118.452V150.224C152.375 150.493 152.267 150.751 152.076 150.94C151.885 151.13 151.626 151.237 151.356 151.237Z" fill="#F2D7AD"/>
<path fill-rule="evenodd" clip-rule="evenodd" d="M151.62 151.237H131.581V117.44H152.549V150.314C152.549 150.558 152.451 150.793 152.277 150.966C152.103 151.139 151.867 151.236 151.621 151.236" fill="#F4D19D"/>
<path fill-rule="evenodd" clip-rule="evenodd" d="M124.647 127.839H93.7392C93.6434 127.839 93.5494 127.813 93.4674 127.764C93.3854 127.714 93.3187 127.644 93.2744 127.559C93.2302 127.475 93.2101 127.38 93.2165 127.285C93.2228 127.19 93.2553 127.098 93.3105 127.02L99.7469 117.883C99.9416 117.605 100.261 117.44 100.604 117.44H131.972L124.647 127.839Z" fill="#F2D7AD"/>
<path fill-rule="evenodd" clip-rule="evenodd" d="M124.783 128.391H100.128V127.871H124.511L131.758 117.583L132.185 117.882L124.783 128.391Z" fill="#CC9B6E"/>
<path fill-rule="evenodd" clip-rule="evenodd" d="M159.699 127.839H140.865C140.54 127.839 140.219 127.763 139.929 127.619C139.638 127.474 139.386 127.265 139.191 127.006L131.972 117.44H152.113C152.608 117.44 153.072 117.67 153.368 118.063L160.117 127.007C160.176 127.085 160.211 127.177 160.22 127.273C160.228 127.369 160.21 127.466 160.167 127.552C160.123 127.638 160.056 127.711 159.974 127.762C159.891 127.813 159.796 127.84 159.699 127.84" fill="#F4D19D"/>
<path fill-rule="evenodd" clip-rule="evenodd" d="M159.244 128.423H139.688L131.762 117.92L132.18 117.609L139.949 127.903H159.244V128.423ZM131.709 150.689L131.677 142.49L132.201 142.488L132.233 150.687L131.709 150.689Z" fill="#CC9B6E"/>
<path fill-rule="evenodd" clip-rule="evenodd" d="M131.666 139.757L131.585 118.286L132.109 118.284L132.19 139.755L131.666 139.757ZM112.866 140.91L112.364 140.766L113.856 135.585L114.358 135.729L112.866 140.91ZM109.397 141.038L106.694 138.095L109.382 134.652L109.796 134.971L107.378 138.068L109.783 140.687L109.397 141.038ZM117.639 141.038L117.253 140.687L119.657 138.068L117.238 134.971L117.652 134.652L120.341 138.095L117.639 141.038Z" fill="#CC9B6E"/>
<path fill-rule="evenodd" clip-rule="evenodd" d="M155.682 131.845L152.54 129.88L152.578 133.403L151.526 133.496C149.829 133.611 147.86 133.726 146.695 133.726C144.776 133.726 143.978 135.99 148.944 136.381L146.276 135.784C146.276 135.784 144.089 137.104 146.785 138.09C146.785 138.09 145.191 139.31 147.351 140.677C146.761 144.19 152.644 144.746 154.536 144.277C156.428 143.805 158.806 141.911 159.062 139.103C159.345 136.009 158.164 133.656 155.683 131.845" fill="#FFC6A0"/>
<path d="M155.046 133.535C155.046 133.535 148.466 134.006 146.612 133.908C144.76 133.81 144.691 136.104 148.992 136.178C152.764 136.328 154.491 136.134 154.491 136.134" stroke="#DB836E" stroke-width="1.051" stroke-linecap="round" stroke-linejoin="round"/>
<path d="M146.445 135.841C144.578 137.191 147.011 138.202 147.011 138.202C147.011 138.202 150.519 139.103 153.8 138.821" stroke="#DB836E" stroke-width="1.051" stroke-linecap="round" stroke-linejoin="round"/>
<path d="M53.3056 89.1252C56.8699 88.7873 61.8031 87.8738 67.0078 81.3504M153.234 141.69C153.234 141.69 146.899 141.801 146.445 139.552C146.22 138.202 146.899 138.146 146.899 138.146L153.234 141.69ZM147.407 140.845C147.407 140.845 146.294 144.014 152.895 144.388L147.407 140.845ZM152.54 129.88V133.366V129.88Z" stroke="#DB836E" stroke-width="1.051" stroke-linecap="round" stroke-linejoin="round"/>
<path fill-rule="evenodd" clip-rule="evenodd" d="M170.059 248.583C168.28 248.583 166.575 247.881 165.317 246.631C164.059 245.381 163.353 243.686 163.353 241.918V175.274C163.353 174.399 163.526 173.532 163.863 172.724C164.2 171.915 164.694 171.181 165.317 170.562C165.94 169.943 166.679 169.452 167.493 169.117C168.306 168.782 169.178 168.61 170.059 168.61C170.939 168.61 171.811 168.782 172.625 169.117C173.439 169.452 174.178 169.943 174.8 170.562C175.423 171.181 175.917 171.915 176.254 172.724C176.591 173.532 176.765 174.399 176.765 175.274V241.918C176.765 243.686 176.058 245.381 174.8 246.631C173.543 247.881 171.837 248.583 170.059 248.583Z" fill="#5BA02E"/>
<path fill-rule="evenodd" clip-rule="evenodd" d="M178.105 247.916C176.327 247.916 174.622 247.214 173.364 245.964C172.107 244.714 171.4 243.019 171.4 241.252V207.931C171.39 207.049 171.555 206.173 171.887 205.355C172.219 204.537 172.711 203.793 173.335 203.165C173.959 202.538 174.702 202.039 175.521 201.699C176.34 201.359 177.218 201.184 178.106 201.184C178.993 201.184 179.872 201.359 180.691 201.699C181.51 202.039 182.253 202.538 182.877 203.165C183.5 203.793 183.992 204.537 184.325 205.355C184.657 206.173 184.822 207.049 184.811 207.931V241.252C184.811 243.019 184.105 244.715 182.847 245.964C181.589 247.214 179.884 247.916 178.105 247.916Z" fill="#92C110"/>
<path fill-rule="evenodd" clip-rule="evenodd" d="M188.093 294H160.326C159.474 294 158.656 293.663 158.053 293.064C157.45 292.464 157.111 291.652 157.111 290.804V244.546C157.111 243.699 157.45 242.886 158.053 242.287C158.656 241.688 159.474 241.351 160.326 241.351H188.094C188.947 241.351 189.764 241.688 190.367 242.287C190.97 242.886 191.309 243.699 191.309 244.546V290.804C191.309 291.652 190.97 292.464 190.367 293.064C189.764 293.663 188.947 294 188.094 294" fill="#F2D7AD"/>
<path d="M89.7664 89.3197C89.7664 89.3197 97.6112 94.7181 106.513 92.1693" stroke="#E4EBF7" stroke-width="1.101" stroke-linecap="round" stroke-linejoin="round"/>
</svg>
